<mxfile host="65bd71144e">
    <diagram id="vjc-r4SsnkEs5MD6MeEq" name="Architecture">
        <mxGraphModel dx="498" dy="510" grid="1" gridSize="10" guides="0" tooltips="1" connect="1" arrows="1" fold="1" page="1" pageScale="1" pageWidth="1169" pageHeight="827" math="0" shadow="0">
            <root>
                <mxCell id="0"/>
                <mxCell id="1" parent="0"/>
                <mxCell id="23" value="&quot;Cloud&quot;" style="rounded=0;whiteSpace=wrap;html=1;glass=0;dashed=1;dashPattern=12 12;strokeColor=#FF3333;fontSize=27;fontColor=#FFFFFF;fillColor=none;movable=0;resizable=0;rotatable=0;deletable=0;editable=0;connectable=0;align=left;verticalAlign=bottom;" parent="1" vertex="1">
                    <mxGeometry x="670" y="600" width="480" height="210" as="geometry"/>
                </mxCell>
                <mxCell id="20" value="Servers" style="rounded=0;whiteSpace=wrap;html=1;glass=0;fillColor=none;fontColor=#FFFFFF;strokeColor=#FF00FF;dashed=1;dashPattern=12 12;verticalAlign=bottom;align=left;fontSize=27;movable=0;resizable=0;rotatable=0;deletable=0;editable=0;connectable=0;" parent="1" vertex="1">
                    <mxGeometry x="670" y="20" width="480" height="540" as="geometry"/>
                </mxCell>
                <mxCell id="19" value="Client" style="rounded=0;whiteSpace=wrap;html=1;glass=0;fillColor=none;fontColor=#ffffff;strokeColor=#00FF00;dashed=1;dashPattern=12 12;verticalAlign=bottom;align=left;fontSize=27;connectable=0;allowArrows=0;editable=0;movable=0;resizable=0;rotatable=0;deletable=0;" parent="1" vertex="1">
                    <mxGeometry x="20" y="20" width="470" height="790" as="geometry"/>
                </mxCell>
                <mxCell id="16" style="edgeStyle=none;html=1;" parent="1" edge="1">
                    <mxGeometry relative="1" as="geometry">
                        <mxPoint x="440" y="240" as="sourcePoint"/>
                        <mxPoint x="1000" y="240" as="targetPoint"/>
                    </mxGeometry>
                </mxCell>
                <mxCell id="17" value="Sends Requests" style="edgeLabel;html=1;align=center;verticalAlign=middle;resizable=0;points=[];fontSize=16;" parent="16" vertex="1" connectable="0">
                    <mxGeometry x="-0.1577" relative="1" as="geometry">
                        <mxPoint x="-96" y="-11" as="offset"/>
                    </mxGeometry>
                </mxCell>
                <mxCell id="2" value="Frontend&lt;br&gt;&lt;br&gt;&lt;br&gt;&lt;br&gt;&lt;br&gt;&lt;br&gt;&lt;br&gt;&lt;br&gt;&lt;br&gt;&lt;br&gt;&lt;br&gt;&lt;br&gt;&lt;br&gt;&lt;br&gt;&lt;br&gt;" style="rounded=0;whiteSpace=wrap;html=1;fontSize=18;" parent="1" vertex="1">
                    <mxGeometry x="280" y="160" width="160" height="610" as="geometry"/>
                </mxCell>
                <mxCell id="11" style="edgeStyle=none;html=1;" parent="1" edge="1">
                    <mxGeometry relative="1" as="geometry">
                        <mxPoint x="1000" y="120" as="sourcePoint"/>
                        <mxPoint x="380" y="160" as="targetPoint"/>
                        <Array as="points">
                            <mxPoint x="380" y="120"/>
                        </Array>
                    </mxGeometry>
                </mxCell>
                <mxCell id="12" value="Send Frontend App" style="edgeLabel;html=1;align=center;verticalAlign=middle;resizable=0;points=[];fontSize=16;" parent="11" vertex="1" connectable="0">
                    <mxGeometry x="-0.1403" relative="1" as="geometry">
                        <mxPoint x="-137" y="-10" as="offset"/>
                    </mxGeometry>
                </mxCell>
                <mxCell id="21" style="edgeStyle=none;html=1;fontSize=27;fontColor=#FFFFFF;" parent="1" edge="1">
                    <mxGeometry relative="1" as="geometry">
                        <mxPoint x="1000" y="280" as="sourcePoint"/>
                        <mxPoint x="440" y="280" as="targetPoint"/>
                    </mxGeometry>
                </mxCell>
                <mxCell id="22" value="Respond to Requests" style="edgeLabel;html=1;align=center;verticalAlign=middle;resizable=0;points=[];fontSize=16;fontColor=#FFFFFF;" parent="21" vertex="1" connectable="0">
                    <mxGeometry x="0.1309" y="3" relative="1" as="geometry">
                        <mxPoint x="-103" y="-13" as="offset"/>
                    </mxGeometry>
                </mxCell>
                <mxCell id="3" value="Backend" style="rounded=0;whiteSpace=wrap;html=1;fontSize=18;" parent="1" vertex="1">
                    <mxGeometry x="1000" y="40" width="120" height="450" as="geometry"/>
                </mxCell>
                <UserObject label="App" id="4">
                    <mxCell style="rounded=0;whiteSpace=wrap;html=1;fontSize=18;" parent="1" vertex="1">
                        <mxGeometry x="300" y="410" width="120" height="340" as="geometry"/>
                    </mxCell>
                </UserObject>
                <mxCell id="8" style="edgeStyle=none;html=1;" parent="1" edge="1">
                    <mxGeometry relative="1" as="geometry">
                        <mxPoint x="160" y="80" as="sourcePoint"/>
                        <mxPoint x="1000" y="80" as="targetPoint"/>
                    </mxGeometry>
                </mxCell>
                <mxCell id="9" value="Request Website" style="edgeLabel;html=1;align=center;verticalAlign=middle;resizable=0;points=[];fontSize=16;" parent="8" vertex="1" connectable="0">
                    <mxGeometry x="0.2939" y="-2" relative="1" as="geometry">
                        <mxPoint x="-125" y="-12" as="offset"/>
                    </mxGeometry>
                </mxCell>
                <mxCell id="14" style="edgeStyle=none;html=1;fontSize=15;" parent="1" edge="1">
                    <mxGeometry relative="1" as="geometry">
                        <mxPoint x="160" y="240" as="sourcePoint"/>
                        <mxPoint x="280" y="240" as="targetPoint"/>
                    </mxGeometry>
                </mxCell>
                <mxCell id="15" value="Interacts with" style="edgeLabel;html=1;align=center;verticalAlign=middle;resizable=0;points=[];fontSize=16;" parent="14" vertex="1" connectable="0">
                    <mxGeometry x="-0.2133" y="-1" relative="1" as="geometry">
                        <mxPoint x="16" y="-12" as="offset"/>
                    </mxGeometry>
                </mxCell>
                <mxCell id="24" style="edgeStyle=none;html=1;fontSize=16;" parent="1" edge="1">
                    <mxGeometry relative="1" as="geometry">
                        <mxPoint x="160" y="359.05" as="sourcePoint"/>
                        <mxPoint x="280" y="360" as="targetPoint"/>
                    </mxGeometry>
                </mxCell>
                <mxCell id="25" value="Opens App" style="edgeLabel;html=1;align=center;verticalAlign=middle;resizable=0;points=[];fontSize=16;" parent="24" vertex="1" connectable="0">
                    <mxGeometry x="0.2057" y="-3" relative="1" as="geometry">
                        <mxPoint x="-15" y="-14" as="offset"/>
                    </mxGeometry>
                </mxCell>
                <mxCell id="13" value="" style="rounded=0;whiteSpace=wrap;html=1;" parent="1" vertex="1">
                    <mxGeometry x="40" y="40" width="120" height="560" as="geometry"/>
                </mxCell>
                <mxCell id="33" style="edgeStyle=none;html=1;fontSize=16;" parent="1" edge="1">
                    <mxGeometry relative="1" as="geometry">
                        <mxPoint x="1000" y="359.05" as="targetPoint"/>
                        <mxPoint x="440" y="359.05" as="sourcePoint"/>
                    </mxGeometry>
                </mxCell>
                <mxCell id="47" value="Request App" style="edgeLabel;html=1;align=center;verticalAlign=middle;resizable=0;points=[];fontSize=16;" parent="33" vertex="1" connectable="0">
                    <mxGeometry x="-0.5503" y="-6" relative="1" as="geometry">
                        <mxPoint x="14" y="-17" as="offset"/>
                    </mxGeometry>
                </mxCell>
                <mxCell id="38" style="edgeStyle=none;html=1;fontSize=16;" parent="1" edge="1">
                    <mxGeometry relative="1" as="geometry">
                        <mxPoint x="440" y="399.05" as="targetPoint"/>
                        <mxPoint x="1000" y="399.05" as="sourcePoint"/>
                    </mxGeometry>
                </mxCell>
                <mxCell id="48" value="Send App" style="edgeLabel;html=1;align=center;verticalAlign=middle;resizable=0;points=[];fontSize=16;" parent="38" vertex="1" connectable="0">
                    <mxGeometry x="0.4333" y="2" relative="1" as="geometry">
                        <mxPoint x="-18" y="-14" as="offset"/>
                    </mxGeometry>
                </mxCell>
                <mxCell id="40" style="endArrow=classic;startArrow=classic;html=1;fontFamily=Helvetica;fontSize=16;fontColor=default;align=center;strokeColor=default;edgeStyle=none;" parent="1" edge="1">
                    <mxGeometry relative="1" as="geometry">
                        <mxPoint x="300" y="700" as="targetPoint"/>
                        <mxPoint x="140" y="700" as="sourcePoint"/>
                    </mxGeometry>
                </mxCell>
                <mxCell id="65" value="&lt;font&gt;Load/Save Projects&lt;br&gt;&lt;/font&gt;" style="edgeLabel;html=1;align=center;verticalAlign=middle;resizable=0;points=[];fontSize=16;fontColor=default;labelBackgroundColor=default;" parent="40" vertex="1" connectable="0">
                    <mxGeometry x="0.0997" relative="1" as="geometry">
                        <mxPoint x="-9" y="-11" as="offset"/>
                    </mxGeometry>
                </mxCell>
                <mxCell id="55" value="" style="sketch=0;aspect=fixed;html=1;points=[];align=center;image;fontSize=12;image=img/lib/mscae/Person.svg;glass=0;dashed=1;dashPattern=1 1;strokeColor=#0000B2;strokeWidth=4;fontColor=#0000B2;fillColor=none;" parent="1" vertex="1">
                    <mxGeometry x="81.5" y="295" width="37" height="50" as="geometry"/>
                </mxCell>
                <mxCell id="58" value="Local Storage,&#10;FTP/NFS" style="strokeColor=#dddddd;shadow=1;strokeWidth=1;rounded=1;absoluteArcSize=1;arcSize=2;labelPosition=center;verticalLabelPosition=middle;align=center;verticalAlign=bottom;spacingLeft=0;fontColor=#999999;fontSize=12;whiteSpace=wrap;spacingBottom=2;glass=0;dashed=1;dashPattern=1 1;sketch=0;fillColor=none;" parent="1" vertex="1">
                    <mxGeometry x="40" y="648.75" width="100" height="100" as="geometry"/>
                </mxCell>
                <mxCell id="59" value="" style="sketch=0;dashed=0;connectable=0;html=1;fillColor=#757575;strokeColor=none;shape=mxgraph.gcp2.storage;part=1;glass=0;dashPattern=1 1;strokeWidth=4;fontSize=16;fontColor=#0000B2;" parent="58" vertex="1">
                    <mxGeometry x="0.5" width="50" height="40" relative="1" as="geometry">
                        <mxPoint x="-25" y="15" as="offset"/>
                    </mxGeometry>
                </mxCell>
                <mxCell id="60" value="Google Drive,&#10;Amazon S3,&#10;etc..." style="strokeColor=#dddddd;shadow=1;strokeWidth=1;rounded=1;absoluteArcSize=1;arcSize=2;labelPosition=center;verticalLabelPosition=middle;align=center;verticalAlign=bottom;spacingLeft=0;fontColor=#999999;fontSize=12;whiteSpace=wrap;spacingBottom=2;glass=0;dashed=1;dashPattern=1 1;sketch=0;fillColor=none;" parent="1" vertex="1">
                    <mxGeometry x="1000" y="639.69" width="120" height="118.12" as="geometry"/>
                </mxCell>
                <mxCell id="61" value="" style="sketch=0;dashed=0;connectable=0;html=1;fillColor=#757575;strokeColor=none;shape=mxgraph.gcp2.storage;part=1;glass=0;dashPattern=1 1;strokeWidth=4;fontSize=16;fontColor=#0000B2;" parent="60" vertex="1">
                    <mxGeometry x="0.5" width="50" height="40" relative="1" as="geometry">
                        <mxPoint x="-25" y="15" as="offset"/>
                    </mxGeometry>
                </mxCell>
                <mxCell id="62" style="edgeStyle=none;html=1;" parent="1" edge="1">
                    <mxGeometry relative="1" as="geometry">
                        <mxPoint x="160" y="560" as="sourcePoint"/>
                        <mxPoint x="300" y="560" as="targetPoint"/>
                    </mxGeometry>
                </mxCell>
                <mxCell id="63" value="Interacts with" style="edgeLabel;html=1;align=center;verticalAlign=middle;resizable=0;points=[];fontSize=16;" parent="62" vertex="1" connectable="0">
                    <mxGeometry x="-0.2133" y="-1" relative="1" as="geometry">
                        <mxPoint x="4" y="-12" as="offset"/>
                    </mxGeometry>
                </mxCell>
                <mxCell id="66" style="endArrow=classic;startArrow=classic;html=1;fontFamily=Helvetica;fontSize=16;fontColor=default;align=center;strokeColor=default;edgeStyle=none;" parent="1" edge="1">
                    <mxGeometry relative="1" as="geometry">
                        <mxPoint x="1000" y="700" as="targetPoint"/>
                        <mxPoint x="420" y="700" as="sourcePoint"/>
                    </mxGeometry>
                </mxCell>
                <mxCell id="67" value="&lt;font&gt;Load/Save Projects&lt;br&gt;&lt;/font&gt;" style="edgeLabel;html=1;align=center;verticalAlign=middle;resizable=0;points=[];fontSize=16;fontColor=default;labelBackgroundColor=default;" parent="66" vertex="1" connectable="0">
                    <mxGeometry x="0.0997" relative="1" as="geometry">
                        <mxPoint x="-159" y="-12" as="offset"/>
                    </mxGeometry>
                </mxCell>
            </root>
        </mxGraphModel>
    </diagram>
    <diagram id="rew6usOJ27cWIxO76dd9" name="View/Default">
        <mxGraphModel dx="2450" dy="1275" grid="1" gridSize="10" guides="1" tooltips="1" connect="1" arrows="1" fold="1" page="1" pageScale="1" pageWidth="1600" pageHeight="900" math="0" shadow="0">
            <root>
                <mxCell id="0"/>
                <mxCell id="1" parent="0"/>
                <mxCell id="jeMOxjpXIFzE2GqDnwZs-1" value="Editor" style="rounded=0;whiteSpace=wrap;html=1;fontSize=17;" vertex="1" parent="1">
                    <mxGeometry x="180" y="50" width="1090" height="600" as="geometry"/>
                </mxCell>
                <mxCell id="jeMOxjpXIFzE2GqDnwZs-2" value="Shortcuts Top" style="rounded=0;whiteSpace=wrap;html=1;fontSize=17;" vertex="1" parent="1">
                    <mxGeometry x="150" y="20" width="1150" height="30" as="geometry"/>
                </mxCell>
                <mxCell id="jeMOxjpXIFzE2GqDnwZs-3" value="Project View" style="rounded=0;whiteSpace=wrap;html=1;fontSize=17;" vertex="1" parent="1">
                    <mxGeometry y="20" width="150" height="860" as="geometry"/>
                </mxCell>
                <mxCell id="jeMOxjpXIFzE2GqDnwZs-4" value="Menu Bar" style="rounded=0;whiteSpace=wrap;html=1;fontSize=17;" vertex="1" parent="1">
                    <mxGeometry width="1600" height="20" as="geometry"/>
                </mxCell>
                <mxCell id="jeMOxjpXIFzE2GqDnwZs-5" value="Footer Bar" style="rounded=0;whiteSpace=wrap;html=1;fontSize=17;" vertex="1" parent="1">
                    <mxGeometry y="880" width="1600" height="20" as="geometry"/>
                </mxCell>
                <mxCell id="jeMOxjpXIFzE2GqDnwZs-6" value="Catalog" style="rounded=0;whiteSpace=wrap;html=1;fontSize=17;" vertex="1" parent="1">
                    <mxGeometry x="1300" y="20" width="300" height="860" as="geometry"/>
                </mxCell>
                <mxCell id="jeMOxjpXIFzE2GqDnwZs-7" value="Shortcuts&amp;nbsp;Right" style="rounded=0;whiteSpace=wrap;html=1;labelBorderColor=none;horizontal=0;fontSize=17;" vertex="1" parent="1">
                    <mxGeometry x="1270" y="50" width="30" height="600" as="geometry"/>
                </mxCell>
                <mxCell id="jeMOxjpXIFzE2GqDnwZs-8" value="Config Menu" style="rounded=0;whiteSpace=wrap;html=1;fontSize=17;" vertex="1" parent="1">
                    <mxGeometry x="150" y="680" width="1150" height="200" as="geometry"/>
                </mxCell>
                <mxCell id="jeMOxjpXIFzE2GqDnwZs-9" value="Shortcuts Bottom" style="rounded=0;whiteSpace=wrap;html=1;fontSize=17;" vertex="1" parent="1">
                    <mxGeometry x="150" y="650" width="1150" height="30" as="geometry"/>
                </mxCell>
                <mxCell id="jeMOxjpXIFzE2GqDnwZs-10" value="Shortcuts Left" style="rounded=0;whiteSpace=wrap;html=1;labelBorderColor=none;horizontal=0;fontSize=17;" vertex="1" parent="1">
                    <mxGeometry x="150" y="50" width="30" height="600" as="geometry"/>
                </mxCell>
            </root>
        </mxGraphModel>
    </diagram>
    <diagram id="Wu7ZRfPeyIHBaQSe8uLy" name="View/Schematics">
        <mxGraphModel dx="1470" dy="765" grid="1" gridSize="10" guides="1" tooltips="1" connect="1" arrows="1" fold="1" page="1" pageScale="1" pageWidth="1600" pageHeight="900" math="0" shadow="0">
            <root>
                <mxCell id="0"/>
                <mxCell id="1" parent="0"/>
            </root>
        </mxGraphModel>
    </diagram>
</mxfile>